<mxfile host="app.diagrams.net" modified="2023-08-04T18:11:36.909Z" agent="Mozilla/5.0 (Windows NT 10.0; Win64; x64) AppleWebKit/537.36 (KHTML, like Gecko) Chrome/115.0.0.0 Safari/537.36 Edg/115.0.1901.188" etag="lCteweR_UKbcFkIbegmz" version="21.6.6" type="device">
  <diagram name="PÃ¡gina-1" id="zCbm6_qmKjyD6X8lsbIg">
    <mxGraphModel dx="1834" dy="764" grid="0" gridSize="10" guides="1" tooltips="1" connect="1" arrows="1" fold="1" page="0" pageScale="1" pageWidth="827" pageHeight="1169" math="0" shadow="0">
      <root>
        <mxCell id="0" />
        <mxCell id="1" parent="0" />
        <mxCell id="7w-UTBUgo0KwM0pY1L8Y-1" value="AWS Cloud" style="sketch=0;outlineConnect=0;html=1;whiteSpace=wrap;fontSize=12;fontStyle=0;shape=mxgraph.aws4.group;grIcon=mxgraph.aws4.group_aws_cloud;strokeColor=#6c8ebf;fillColor=#dae8fc;verticalAlign=top;align=left;spacingLeft=30;dashed=0;" parent="1" vertex="1">
          <mxGeometry x="-316" y="81" width="1144" height="743" as="geometry" />
        </mxCell>
        <mxCell id="7w-UTBUgo0KwM0pY1L8Y-2" value="Region" style="sketch=0;outlineConnect=0;html=1;whiteSpace=wrap;fontSize=12;fontStyle=0;shape=mxgraph.aws4.group;grIcon=mxgraph.aws4.group_region;strokeColor=#666666;fillColor=#f5f5f5;verticalAlign=top;align=left;spacingLeft=30;fontColor=#333333;dashed=1;" parent="1" vertex="1">
          <mxGeometry x="-295" y="110" width="1093" height="700" as="geometry" />
        </mxCell>
        <mxCell id="7w-UTBUgo0KwM0pY1L8Y-3" value="AWS Account Application" style="points=[[0,0],[0.25,0],[0.5,0],[0.75,0],[1,0],[1,0.25],[1,0.5],[1,0.75],[1,1],[0.75,1],[0.5,1],[0.25,1],[0,1],[0,0.75],[0,0.5],[0,0.25]];outlineConnect=0;html=1;whiteSpace=wrap;fontSize=12;fontStyle=0;container=1;pointerEvents=0;collapsible=0;recursiveResize=0;shape=mxgraph.aws4.group;grIcon=mxgraph.aws4.group_account;strokeColor=#82b366;fillColor=#d5e8d4;verticalAlign=top;align=left;spacingLeft=30;dashed=1;" parent="1" vertex="1">
          <mxGeometry x="-282" y="149" width="622" height="630" as="geometry" />
        </mxCell>
        <mxCell id="CcZXoFNFBwiP1xoQuIix-80" style="edgeStyle=orthogonalEdgeStyle;rounded=0;orthogonalLoop=1;jettySize=auto;html=1;startArrow=classic;startFill=1;" edge="1" parent="1" source="7w-UTBUgo0KwM0pY1L8Y-4" target="7w-UTBUgo0KwM0pY1L8Y-68">
          <mxGeometry relative="1" as="geometry" />
        </mxCell>
        <mxCell id="7w-UTBUgo0KwM0pY1L8Y-4" value="AWS Account Analytics" style="points=[[0,0],[0.25,0],[0.5,0],[0.75,0],[1,0],[1,0.25],[1,0.5],[1,0.75],[1,1],[0.75,1],[0.5,1],[0.25,1],[0,1],[0,0.75],[0,0.5],[0,0.25]];outlineConnect=0;html=1;whiteSpace=wrap;fontSize=12;fontStyle=0;container=1;pointerEvents=0;collapsible=0;recursiveResize=0;shape=mxgraph.aws4.group;grIcon=mxgraph.aws4.group_account;strokeColor=#82b366;fillColor=#d5e8d4;verticalAlign=top;align=left;spacingLeft=30;dashed=1;" parent="1" vertex="1">
          <mxGeometry x="513" y="147" width="237" height="634" as="geometry" />
        </mxCell>
        <mxCell id="CcZXoFNFBwiP1xoQuIix-64" value="QuickSight" style="text;html=1;strokeColor=none;fillColor=none;align=center;verticalAlign=middle;whiteSpace=wrap;rounded=0;" vertex="1" parent="7w-UTBUgo0KwM0pY1L8Y-4">
          <mxGeometry x="131" y="73" width="54" height="30" as="geometry" />
        </mxCell>
        <mxCell id="CcZXoFNFBwiP1xoQuIix-25" value="Availability zone A" style="sketch=0;outlineConnect=0;html=1;whiteSpace=wrap;fontSize=12;fontStyle=0;shape=mxgraph.aws4.group;grIcon=mxgraph.aws4.group_availability_zone;strokeColor=#666666;fillColor=#f5f5f5;verticalAlign=top;align=left;spacingLeft=30;dashed=1;fontColor=#333333;" vertex="1" parent="7w-UTBUgo0KwM0pY1L8Y-4">
          <mxGeometry x="35" y="308" width="179" height="279" as="geometry" />
        </mxCell>
        <mxCell id="7w-UTBUgo0KwM0pY1L8Y-7" value="Availability zone B" style="sketch=0;outlineConnect=0;html=1;whiteSpace=wrap;fontSize=12;fontStyle=0;shape=mxgraph.aws4.group;grIcon=mxgraph.aws4.group_availability_zone;strokeColor=#666666;fillColor=#f5f5f5;verticalAlign=top;align=left;spacingLeft=30;dashed=1;fontColor=#333333;" parent="1" vertex="1">
          <mxGeometry x="-65" y="197" width="179" height="556" as="geometry" />
        </mxCell>
        <mxCell id="7w-UTBUgo0KwM0pY1L8Y-8" value="Availability zone C" style="sketch=0;outlineConnect=0;html=1;whiteSpace=wrap;fontSize=12;fontStyle=0;shape=mxgraph.aws4.group;grIcon=mxgraph.aws4.group_availability_zone;strokeColor=#666666;fillColor=#f5f5f5;verticalAlign=top;align=left;spacingLeft=30;dashed=1;fontColor=#333333;" parent="1" vertex="1">
          <mxGeometry x="140" y="197" width="179" height="556" as="geometry" />
        </mxCell>
        <mxCell id="7w-UTBUgo0KwM0pY1L8Y-5" value="Availability zone A" style="sketch=0;outlineConnect=0;html=1;whiteSpace=wrap;fontSize=12;fontStyle=0;shape=mxgraph.aws4.group;grIcon=mxgraph.aws4.group_availability_zone;strokeColor=#666666;fillColor=#f5f5f5;verticalAlign=top;align=left;spacingLeft=30;dashed=1;fontColor=#333333;" parent="1" vertex="1">
          <mxGeometry x="-264" y="197" width="179" height="556" as="geometry" />
        </mxCell>
        <mxCell id="7w-UTBUgo0KwM0pY1L8Y-11" value="App VPC" style="points=[[0,0],[0.25,0],[0.5,0],[0.75,0],[1,0],[1,0.25],[1,0.5],[1,0.75],[1,1],[0.75,1],[0.5,1],[0.25,1],[0,1],[0,0.75],[0,0.5],[0,0.25]];outlineConnect=0;html=1;whiteSpace=wrap;fontSize=12;fontStyle=0;container=1;pointerEvents=0;collapsible=0;recursiveResize=0;shape=mxgraph.aws4.group;grIcon=mxgraph.aws4.group_vpc;strokeColor=#b46504;fillColor=#fad7ac;verticalAlign=top;align=left;spacingLeft=30;dashed=1;opacity=50;" parent="1" vertex="1">
          <mxGeometry x="-273" y="238" width="603" height="522" as="geometry" />
        </mxCell>
        <mxCell id="7w-UTBUgo0KwM0pY1L8Y-17" value="ALB" style="points=[[0,0],[0.25,0],[0.5,0],[0.75,0],[1,0],[1,0.25],[1,0.5],[1,0.75],[1,1],[0.75,1],[0.5,1],[0.25,1],[0,1],[0,0.75],[0,0.5],[0,0.25]];outlineConnect=0;gradientColor=none;html=1;whiteSpace=wrap;fontSize=12;fontStyle=0;container=1;pointerEvents=0;collapsible=0;recursiveResize=0;shape=mxgraph.aws4.group;grIcon=mxgraph.aws4.group_security_group;grStroke=0;strokeColor=#248814;fillColor=#E9F3E6;verticalAlign=top;align=left;spacingLeft=30;fontColor=#248814;dashed=0;" parent="7w-UTBUgo0KwM0pY1L8Y-11" vertex="1">
          <mxGeometry x="16.5" y="56" width="161.5" height="117" as="geometry" />
        </mxCell>
        <mxCell id="7w-UTBUgo0KwM0pY1L8Y-32" value="Database" style="points=[[0,0],[0.25,0],[0.5,0],[0.75,0],[1,0],[1,0.25],[1,0.5],[1,0.75],[1,1],[0.75,1],[0.5,1],[0.25,1],[0,1],[0,0.75],[0,0.5],[0,0.25]];outlineConnect=0;gradientColor=none;html=1;whiteSpace=wrap;fontSize=12;fontStyle=0;container=1;pointerEvents=0;collapsible=0;recursiveResize=0;shape=mxgraph.aws4.group;grIcon=mxgraph.aws4.group_security_group;grStroke=0;strokeColor=#147EBA;fillColor=#E6F2F8;verticalAlign=top;align=left;spacingLeft=30;fontColor=#147EBA;dashed=0;" parent="7w-UTBUgo0KwM0pY1L8Y-11" vertex="1">
          <mxGeometry x="16.5" y="348" width="162.5" height="133" as="geometry" />
        </mxCell>
        <mxCell id="CcZXoFNFBwiP1xoQuIix-21" value="Mult AZ RDS" style="outlineConnect=0;dashed=0;verticalLabelPosition=bottom;verticalAlign=top;align=center;html=1;shape=mxgraph.aws3.rds;fillColor=#2E73B8;gradientColor=none;aspect=fixed;" vertex="1" parent="7w-UTBUgo0KwM0pY1L8Y-32">
          <mxGeometry x="56.32999999999997" y="47" width="45" height="50.63" as="geometry" />
        </mxCell>
        <mxCell id="7w-UTBUgo0KwM0pY1L8Y-34" value="FrontEnd" style="points=[[0,0],[0.25,0],[0.5,0],[0.75,0],[1,0],[1,0.25],[1,0.5],[1,0.75],[1,1],[0.75,1],[0.5,1],[0.25,1],[0,1],[0,0.75],[0,0.5],[0,0.25]];outlineConnect=0;gradientColor=none;html=1;whiteSpace=wrap;fontSize=12;fontStyle=0;container=1;pointerEvents=0;collapsible=0;recursiveResize=0;shape=mxgraph.aws4.group;grIcon=mxgraph.aws4.group_security_group;grStroke=0;strokeColor=#147EBA;fillColor=#E6F2F8;verticalAlign=top;align=left;spacingLeft=30;fontColor=#147EBA;dashed=0;" parent="7w-UTBUgo0KwM0pY1L8Y-11" vertex="1">
          <mxGeometry x="16.5" y="192" width="162.5" height="146" as="geometry" />
        </mxCell>
        <mxCell id="7w-UTBUgo0KwM0pY1L8Y-35" value="ALB" style="points=[[0,0],[0.25,0],[0.5,0],[0.75,0],[1,0],[1,0.25],[1,0.5],[1,0.75],[1,1],[0.75,1],[0.5,1],[0.25,1],[0,1],[0,0.75],[0,0.5],[0,0.25]];outlineConnect=0;gradientColor=none;html=1;whiteSpace=wrap;fontSize=12;fontStyle=0;container=1;pointerEvents=0;collapsible=0;recursiveResize=0;shape=mxgraph.aws4.group;grIcon=mxgraph.aws4.group_security_group;grStroke=0;strokeColor=#248814;fillColor=#E9F3E6;verticalAlign=top;align=left;spacingLeft=30;fontColor=#248814;dashed=0;" parent="7w-UTBUgo0KwM0pY1L8Y-11" vertex="1">
          <mxGeometry x="215" y="56" width="161.5" height="113" as="geometry" />
        </mxCell>
        <mxCell id="7w-UTBUgo0KwM0pY1L8Y-37" value="Database" style="points=[[0,0],[0.25,0],[0.5,0],[0.75,0],[1,0],[1,0.25],[1,0.5],[1,0.75],[1,1],[0.75,1],[0.5,1],[0.25,1],[0,1],[0,0.75],[0,0.5],[0,0.25]];outlineConnect=0;gradientColor=none;html=1;whiteSpace=wrap;fontSize=12;fontStyle=0;container=1;pointerEvents=0;collapsible=0;recursiveResize=0;shape=mxgraph.aws4.group;grIcon=mxgraph.aws4.group_security_group;grStroke=0;strokeColor=#147EBA;fillColor=#E6F2F8;verticalAlign=top;align=left;spacingLeft=30;fontColor=#147EBA;dashed=0;" parent="7w-UTBUgo0KwM0pY1L8Y-11" vertex="1">
          <mxGeometry x="421" y="348" width="162.5" height="133" as="geometry" />
        </mxCell>
        <mxCell id="CcZXoFNFBwiP1xoQuIix-14" value="Mult AZ RDS" style="outlineConnect=0;dashed=0;verticalLabelPosition=bottom;verticalAlign=top;align=center;html=1;shape=mxgraph.aws3.rds;fillColor=#2E73B8;gradientColor=none;aspect=fixed;" vertex="1" parent="7w-UTBUgo0KwM0pY1L8Y-37">
          <mxGeometry x="59.75" y="47" width="45" height="50.63" as="geometry" />
        </mxCell>
        <mxCell id="7w-UTBUgo0KwM0pY1L8Y-38" value="ALB" style="points=[[0,0],[0.25,0],[0.5,0],[0.75,0],[1,0],[1,0.25],[1,0.5],[1,0.75],[1,1],[0.75,1],[0.5,1],[0.25,1],[0,1],[0,0.75],[0,0.5],[0,0.25]];outlineConnect=0;gradientColor=none;html=1;whiteSpace=wrap;fontSize=12;fontStyle=0;container=1;pointerEvents=0;collapsible=0;recursiveResize=0;shape=mxgraph.aws4.group;grIcon=mxgraph.aws4.group_security_group;grStroke=0;strokeColor=#248814;fillColor=#E9F3E6;verticalAlign=top;align=left;spacingLeft=30;fontColor=#248814;dashed=0;" parent="7w-UTBUgo0KwM0pY1L8Y-11" vertex="1">
          <mxGeometry x="422" y="56" width="161.5" height="113" as="geometry" />
        </mxCell>
        <mxCell id="7w-UTBUgo0KwM0pY1L8Y-39" value="FrontEnd" style="points=[[0,0],[0.25,0],[0.5,0],[0.75,0],[1,0],[1,0.25],[1,0.5],[1,0.75],[1,1],[0.75,1],[0.5,1],[0.25,1],[0,1],[0,0.75],[0,0.5],[0,0.25]];outlineConnect=0;gradientColor=none;html=1;whiteSpace=wrap;fontSize=12;fontStyle=0;container=1;pointerEvents=0;collapsible=0;recursiveResize=0;shape=mxgraph.aws4.group;grIcon=mxgraph.aws4.group_security_group;grStroke=0;strokeColor=#147EBA;fillColor=#E6F2F8;verticalAlign=top;align=left;spacingLeft=30;fontColor=#147EBA;dashed=0;" parent="7w-UTBUgo0KwM0pY1L8Y-11" vertex="1">
          <mxGeometry x="422" y="194.5" width="162.5" height="140.5" as="geometry" />
        </mxCell>
        <mxCell id="7w-UTBUgo0KwM0pY1L8Y-40" value="Database" style="points=[[0,0],[0.25,0],[0.5,0],[0.75,0],[1,0],[1,0.25],[1,0.5],[1,0.75],[1,1],[0.75,1],[0.5,1],[0.25,1],[0,1],[0,0.75],[0,0.5],[0,0.25]];outlineConnect=0;gradientColor=none;html=1;whiteSpace=wrap;fontSize=12;fontStyle=0;container=1;pointerEvents=0;collapsible=0;recursiveResize=0;shape=mxgraph.aws4.group;grIcon=mxgraph.aws4.group_security_group;grStroke=0;strokeColor=#147EBA;fillColor=#E6F2F8;verticalAlign=top;align=left;spacingLeft=30;fontColor=#147EBA;dashed=0;" parent="7w-UTBUgo0KwM0pY1L8Y-11" vertex="1">
          <mxGeometry x="214" y="348" width="162.5" height="133" as="geometry" />
        </mxCell>
        <mxCell id="CcZXoFNFBwiP1xoQuIix-20" value="Mult AZ RDS" style="outlineConnect=0;dashed=0;verticalLabelPosition=bottom;verticalAlign=top;align=center;html=1;shape=mxgraph.aws3.rds;fillColor=#2E73B8;gradientColor=none;aspect=fixed;" vertex="1" parent="7w-UTBUgo0KwM0pY1L8Y-40">
          <mxGeometry x="64.99999999999997" y="47" width="45" height="50.63" as="geometry" />
        </mxCell>
        <mxCell id="CcZXoFNFBwiP1xoQuIix-23" style="edgeStyle=orthogonalEdgeStyle;rounded=0;orthogonalLoop=1;jettySize=auto;html=1;startArrow=classic;startFill=1;" edge="1" parent="7w-UTBUgo0KwM0pY1L8Y-11" source="CcZXoFNFBwiP1xoQuIix-21" target="CcZXoFNFBwiP1xoQuIix-20">
          <mxGeometry relative="1" as="geometry" />
        </mxCell>
        <mxCell id="CcZXoFNFBwiP1xoQuIix-24" style="edgeStyle=orthogonalEdgeStyle;rounded=0;orthogonalLoop=1;jettySize=auto;html=1;startArrow=classic;startFill=1;" edge="1" parent="7w-UTBUgo0KwM0pY1L8Y-11" source="CcZXoFNFBwiP1xoQuIix-20" target="CcZXoFNFBwiP1xoQuIix-14">
          <mxGeometry relative="1" as="geometry" />
        </mxCell>
        <mxCell id="7w-UTBUgo0KwM0pY1L8Y-36" value="FrontEnd" style="points=[[0,0],[0.25,0],[0.5,0],[0.75,0],[1,0],[1,0.25],[1,0.5],[1,0.75],[1,1],[0.75,1],[0.5,1],[0.25,1],[0,1],[0,0.75],[0,0.5],[0,0.25]];outlineConnect=0;gradientColor=none;html=1;whiteSpace=wrap;fontSize=12;fontStyle=0;container=1;pointerEvents=0;collapsible=0;recursiveResize=0;shape=mxgraph.aws4.group;grIcon=mxgraph.aws4.group_security_group;grStroke=0;strokeColor=#147EBA;fillColor=#E6F2F8;verticalAlign=top;align=left;spacingLeft=30;fontColor=#147EBA;dashed=0;" parent="1" vertex="1">
          <mxGeometry x="-56.75" y="432.5" width="162.5" height="142.5" as="geometry" />
        </mxCell>
        <mxCell id="7w-UTBUgo0KwM0pY1L8Y-45" value="" style="rounded=1;arcSize=10;dashed=1;fillColor=none;gradientColor=none;dashPattern=1 1;strokeWidth=2;" parent="1" vertex="1">
          <mxGeometry x="-198" y="332" width="459" height="64" as="geometry" />
        </mxCell>
        <mxCell id="7w-UTBUgo0KwM0pY1L8Y-58" style="rounded=0;orthogonalLoop=1;jettySize=auto;html=1;exitX=0;exitY=0.5;exitDx=0;exitDy=0;exitPerimeter=0;edgeStyle=orthogonalEdgeStyle;curved=1;" parent="1" source="7w-UTBUgo0KwM0pY1L8Y-46" target="7w-UTBUgo0KwM0pY1L8Y-54" edge="1">
          <mxGeometry relative="1" as="geometry" />
        </mxCell>
        <mxCell id="7w-UTBUgo0KwM0pY1L8Y-59" style="edgeStyle=orthogonalEdgeStyle;rounded=0;orthogonalLoop=1;jettySize=auto;html=1;exitX=0.5;exitY=1;exitDx=0;exitDy=0;exitPerimeter=0;" parent="1" source="7w-UTBUgo0KwM0pY1L8Y-46" target="7w-UTBUgo0KwM0pY1L8Y-55" edge="1">
          <mxGeometry relative="1" as="geometry" />
        </mxCell>
        <mxCell id="7w-UTBUgo0KwM0pY1L8Y-60" style="edgeStyle=orthogonalEdgeStyle;rounded=0;orthogonalLoop=1;jettySize=auto;html=1;exitX=1;exitY=0.5;exitDx=0;exitDy=0;exitPerimeter=0;curved=1;" parent="1" source="7w-UTBUgo0KwM0pY1L8Y-46" target="7w-UTBUgo0KwM0pY1L8Y-56" edge="1">
          <mxGeometry relative="1" as="geometry" />
        </mxCell>
        <mxCell id="7w-UTBUgo0KwM0pY1L8Y-46" value="" style="outlineConnect=0;dashed=0;verticalLabelPosition=bottom;verticalAlign=top;align=center;html=1;shape=mxgraph.aws3.application_load_balancer;fillColor=#F58534;gradientColor=none;aspect=fixed;" parent="1" vertex="1">
          <mxGeometry x="7.409999999999997" y="344" width="42.17" height="44" as="geometry" />
        </mxCell>
        <mxCell id="7w-UTBUgo0KwM0pY1L8Y-48" style="edgeStyle=orthogonalEdgeStyle;rounded=0;orthogonalLoop=1;jettySize=auto;html=1;entryX=0.5;entryY=0;entryDx=0;entryDy=0;entryPerimeter=0;" parent="1" source="7w-UTBUgo0KwM0pY1L8Y-47" target="7w-UTBUgo0KwM0pY1L8Y-46" edge="1">
          <mxGeometry relative="1" as="geometry">
            <Array as="points">
              <mxPoint x="205" y="131" />
              <mxPoint x="29" y="131" />
            </Array>
          </mxGeometry>
        </mxCell>
        <mxCell id="7w-UTBUgo0KwM0pY1L8Y-47" value="" style="outlineConnect=0;dashed=0;verticalLabelPosition=bottom;verticalAlign=top;align=center;html=1;shape=mxgraph.aws3.internet_gateway;fillColor=#F58534;gradientColor=none;aspect=fixed;" parent="1" vertex="1">
          <mxGeometry x="184" y="59" width="42" height="43.83" as="geometry" />
        </mxCell>
        <mxCell id="CcZXoFNFBwiP1xoQuIix-22" style="edgeStyle=orthogonalEdgeStyle;rounded=0;orthogonalLoop=1;jettySize=auto;html=1;" edge="1" parent="1" source="7w-UTBUgo0KwM0pY1L8Y-53" target="CcZXoFNFBwiP1xoQuIix-20">
          <mxGeometry relative="1" as="geometry" />
        </mxCell>
        <mxCell id="7w-UTBUgo0KwM0pY1L8Y-53" value="Auto Scaling group" style="points=[[0,0],[0.25,0],[0.5,0],[0.75,0],[1,0],[1,0.25],[1,0.5],[1,0.75],[1,1],[0.75,1],[0.5,1],[0.25,1],[0,1],[0,0.75],[0,0.5],[0,0.25]];outlineConnect=0;gradientColor=none;html=1;whiteSpace=wrap;fontSize=12;fontStyle=0;container=1;pointerEvents=0;collapsible=0;recursiveResize=0;shape=mxgraph.aws4.groupCenter;grIcon=mxgraph.aws4.group_auto_scaling_group;grStroke=1;strokeColor=#D86613;fillColor=none;verticalAlign=top;align=center;fontColor=#D86613;dashed=1;spacingTop=25;" parent="1" vertex="1">
          <mxGeometry x="-240.5" y="467" width="538" height="99" as="geometry" />
        </mxCell>
        <mxCell id="7w-UTBUgo0KwM0pY1L8Y-54" value="" style="outlineConnect=0;dashed=0;verticalLabelPosition=bottom;verticalAlign=top;align=center;html=1;shape=mxgraph.aws3.ec2;fillColor=#F58534;gradientColor=none;aspect=fixed;" parent="7w-UTBUgo0KwM0pY1L8Y-53" vertex="1">
          <mxGeometry x="46.67" y="47" width="38.66" height="47" as="geometry" />
        </mxCell>
        <mxCell id="7w-UTBUgo0KwM0pY1L8Y-55" value="" style="outlineConnect=0;dashed=0;verticalLabelPosition=bottom;verticalAlign=top;align=center;html=1;shape=mxgraph.aws3.ec2;fillColor=#F58534;gradientColor=none;aspect=fixed;" parent="7w-UTBUgo0KwM0pY1L8Y-53" vertex="1">
          <mxGeometry x="249.67" y="52" width="38.66" height="47" as="geometry" />
        </mxCell>
        <mxCell id="7w-UTBUgo0KwM0pY1L8Y-56" value="" style="outlineConnect=0;dashed=0;verticalLabelPosition=bottom;verticalAlign=top;align=center;html=1;shape=mxgraph.aws3.ec2;fillColor=#F58534;gradientColor=none;aspect=fixed;" parent="1" vertex="1">
          <mxGeometry x="205" y="514" width="38.66" height="47" as="geometry" />
        </mxCell>
        <mxCell id="CcZXoFNFBwiP1xoQuIix-3" style="edgeStyle=orthogonalEdgeStyle;rounded=0;orthogonalLoop=1;jettySize=auto;html=1;entryX=1;entryY=0.5;entryDx=0;entryDy=0;startArrow=classic;startFill=1;" edge="1" parent="1" source="7w-UTBUgo0KwM0pY1L8Y-68" target="7w-UTBUgo0KwM0pY1L8Y-3">
          <mxGeometry relative="1" as="geometry" />
        </mxCell>
        <mxCell id="7w-UTBUgo0KwM0pY1L8Y-68" value="Transit &lt;br&gt;Gateway" style="sketch=0;points=[[0,0,0],[0.25,0,0],[0.5,0,0],[0.75,0,0],[1,0,0],[0,1,0],[0.25,1,0],[0.5,1,0],[0.75,1,0],[1,1,0],[0,0.25,0],[0,0.5,0],[0,0.75,0],[1,0.25,0],[1,0.5,0],[1,0.75,0]];outlineConnect=0;fontColor=#232F3E;gradientColor=#945DF2;gradientDirection=north;fillColor=#5A30B5;strokeColor=#ffffff;dashed=0;verticalLabelPosition=bottom;verticalAlign=top;align=center;html=1;fontSize=12;fontStyle=0;aspect=fixed;shape=mxgraph.aws4.resourceIcon;resIcon=mxgraph.aws4.transit_gateway;" parent="1" vertex="1">
          <mxGeometry x="408" y="441.5" width="45" height="45" as="geometry" />
        </mxCell>
        <mxCell id="CcZXoFNFBwiP1xoQuIix-10" value="ALB" style="text;html=1;strokeColor=none;fillColor=none;align=center;verticalAlign=middle;whiteSpace=wrap;rounded=0;" vertex="1" parent="1">
          <mxGeometry x="39" y="334" width="60" height="30" as="geometry" />
        </mxCell>
        <mxCell id="CcZXoFNFBwiP1xoQuIix-11" value="IGW" style="text;html=1;strokeColor=none;fillColor=none;align=center;verticalAlign=middle;whiteSpace=wrap;rounded=0;" vertex="1" parent="1">
          <mxGeometry x="221.5" y="51" width="60" height="30" as="geometry" />
        </mxCell>
        <mxCell id="CcZXoFNFBwiP1xoQuIix-59" value="" style="outlineConnect=0;dashed=0;verticalLabelPosition=bottom;verticalAlign=top;align=center;html=1;shape=mxgraph.aws3.s3;fillColor=#E05243;gradientColor=none;aspect=fixed;" vertex="1" parent="1">
          <mxGeometry x="615" y="374" width="45" height="54.71" as="geometry" />
        </mxCell>
        <mxCell id="CcZXoFNFBwiP1xoQuIix-61" value="S3" style="text;html=1;strokeColor=none;fillColor=none;align=center;verticalAlign=middle;whiteSpace=wrap;rounded=0;" vertex="1" parent="1">
          <mxGeometry x="648" y="364" width="22" height="30" as="geometry" />
        </mxCell>
        <mxCell id="CcZXoFNFBwiP1xoQuIix-65" value="Analytics VPC" style="points=[[0,0],[0.25,0],[0.5,0],[0.75,0],[1,0],[1,0.25],[1,0.5],[1,0.75],[1,1],[0.75,1],[0.5,1],[0.25,1],[0,1],[0,0.75],[0,0.5],[0,0.25]];outlineConnect=0;html=1;whiteSpace=wrap;fontSize=12;fontStyle=0;container=1;pointerEvents=0;collapsible=0;recursiveResize=0;shape=mxgraph.aws4.group;grIcon=mxgraph.aws4.group_vpc;strokeColor=#b46504;fillColor=#fad7ac;verticalAlign=top;align=left;spacingLeft=30;dashed=1;opacity=50;" vertex="1" parent="1">
          <mxGeometry x="537" y="502" width="201" height="185" as="geometry" />
        </mxCell>
        <mxCell id="CcZXoFNFBwiP1xoQuIix-56" value="Backend" style="points=[[0,0],[0.25,0],[0.5,0],[0.75,0],[1,0],[1,0.25],[1,0.5],[1,0.75],[1,1],[0.75,1],[0.5,1],[0.25,1],[0,1],[0,0.75],[0,0.5],[0,0.25]];outlineConnect=0;gradientColor=none;html=1;whiteSpace=wrap;fontSize=12;fontStyle=0;container=1;pointerEvents=0;collapsible=0;recursiveResize=0;shape=mxgraph.aws4.group;grIcon=mxgraph.aws4.group_security_group;grStroke=0;strokeColor=#147EBA;fillColor=#E6F2F8;verticalAlign=top;align=left;spacingLeft=30;fontColor=#147EBA;dashed=0;" vertex="1" parent="1">
          <mxGeometry x="554" y="527" width="162.5" height="146" as="geometry" />
        </mxCell>
        <mxCell id="CcZXoFNFBwiP1xoQuIix-57" value="Lambda ETL&lt;br&gt;Process" style="outlineConnect=0;dashed=0;verticalLabelPosition=bottom;verticalAlign=top;align=center;html=1;shape=mxgraph.aws3.lambda;fillColor=#F58534;gradientColor=none;aspect=fixed;" vertex="1" parent="CcZXoFNFBwiP1xoQuIix-56">
          <mxGeometry x="61" y="54" width="45" height="54.71" as="geometry" />
        </mxCell>
        <mxCell id="CcZXoFNFBwiP1xoQuIix-81" style="edgeStyle=orthogonalEdgeStyle;rounded=0;orthogonalLoop=1;jettySize=auto;html=1;startArrow=classic;startFill=1;" edge="1" parent="1" source="CcZXoFNFBwiP1xoQuIix-57" target="CcZXoFNFBwiP1xoQuIix-14">
          <mxGeometry relative="1" as="geometry" />
        </mxCell>
        <mxCell id="CcZXoFNFBwiP1xoQuIix-82" value="Route table" style="sketch=0;outlineConnect=0;fontColor=#232F3E;gradientColor=none;fillColor=#4D27AA;strokeColor=none;dashed=0;verticalLabelPosition=bottom;verticalAlign=top;align=center;html=1;fontSize=12;fontStyle=0;aspect=fixed;pointerEvents=1;shape=mxgraph.aws4.route_table;" vertex="1" parent="1">
          <mxGeometry x="408" y="371" width="45" height="43.85" as="geometry" />
        </mxCell>
        <mxCell id="CcZXoFNFBwiP1xoQuIix-87" style="edgeStyle=orthogonalEdgeStyle;rounded=0;orthogonalLoop=1;jettySize=auto;html=1;startArrow=classic;startFill=1;" edge="1" parent="1" source="CcZXoFNFBwiP1xoQuIix-86" target="CcZXoFNFBwiP1xoQuIix-59">
          <mxGeometry relative="1" as="geometry" />
        </mxCell>
        <mxCell id="CcZXoFNFBwiP1xoQuIix-86" value="" style="sketch=0;points=[[0,0,0],[0.25,0,0],[0.5,0,0],[0.75,0,0],[1,0,0],[0,1,0],[0.25,1,0],[0.5,1,0],[0.75,1,0],[1,1,0],[0,0.25,0],[0,0.5,0],[0,0.75,0],[1,0.25,0],[1,0.5,0],[1,0.75,0]];outlineConnect=0;fontColor=#232F3E;gradientColor=#945DF2;gradientDirection=north;fillColor=#5A30B5;strokeColor=#ffffff;dashed=0;verticalLabelPosition=bottom;verticalAlign=top;align=center;html=1;fontSize=12;fontStyle=0;aspect=fixed;shape=mxgraph.aws4.resourceIcon;resIcon=mxgraph.aws4.quicksight;" vertex="1" parent="1">
          <mxGeometry x="615" y="247" width="45" height="45" as="geometry" />
        </mxCell>
        <mxCell id="CcZXoFNFBwiP1xoQuIix-94" style="edgeStyle=orthogonalEdgeStyle;rounded=0;orthogonalLoop=1;jettySize=auto;html=1;" edge="1" parent="1" source="CcZXoFNFBwiP1xoQuIix-57" target="CcZXoFNFBwiP1xoQuIix-59">
          <mxGeometry relative="1" as="geometry" />
        </mxCell>
      </root>
    </mxGraphModel>
  </diagram>
</mxfile>
